<?xml version="1.0" encoding="utf-8"?>
<!-- Generator: Adobe Illustrator 16.0.0, SVG Export Plug-In . SVG Version: 6.00 Build 0)  -->
<!DOCTYPE svg PUBLIC "-//W3C//DTD SVG 1.1//EN" "http://www.w3.org/Graphics/SVG/1.1/DTD/svg11.dtd">
<svg version="1.1" id="Layer_1" xmlns="http://www.w3.org/2000/svg" xmlns:xlink="http://www.w3.org/1999/xlink" x="0px" y="0px"
	 width="506.648px" height="106.31px" viewBox="0 0 506.648 106.31" enable-background="new 0 0 506.648 106.31"
	 xml:space="preserve">
<g>
	<path fill-rule="evenodd" clip-rule="evenodd" fill="#19415E" stroke="#FFFFFF" stroke-miterlimit="10" d="M109.982,67.438
		l34.227,34.228c3.449,3.449,9.096,3.449,12.546,0l34.227-34.228c3.45-3.45,3.45-9.096,0-12.546l-21.68-21.68
		c-10.351-10.352-27.289-10.352-37.64,0l-21.68,21.68C106.531,58.343,106.531,63.988,109.982,67.438L109.982,67.438z"/>
	<path fill-rule="evenodd" clip-rule="evenodd" fill="#19415E" stroke="#FFFFFF" stroke-miterlimit="10" d="M12.334,67.438
		l34.227,34.228c3.449,3.449,9.096,3.449,12.546,0l34.227-34.228c3.45-3.45,3.45-9.096,0-12.546l-21.68-21.68
		c-10.351-10.352-27.289-10.352-37.64,0l-21.68,21.68C8.883,58.343,8.883,63.988,12.334,67.438L12.334,67.438z"/>
	<path fill-rule="evenodd" clip-rule="evenodd" fill="#19415E" stroke="#FFFFFF" stroke-miterlimit="10" d="M207.57,67.438
		l34.227,34.228c3.451,3.449,9.097,3.449,12.547,0l34.227-34.228c3.45-3.45,3.45-9.096,0-12.546l-21.68-21.68
		c-10.351-10.352-27.289-10.352-37.64,0l-21.681,21.68C204.121,58.343,204.121,63.988,207.57,67.438L207.57,67.438z"/>
	<path fill-rule="evenodd" clip-rule="evenodd" fill="#19415E" stroke="#FFFFFF" stroke-miterlimit="10" d="M305.16,67.438
		l34.227,34.228c3.45,3.449,9.096,3.449,12.546,0l34.228-34.228c3.449-3.45,3.449-9.096,0-12.546l-21.68-21.68
		c-10.352-10.352-27.289-10.352-37.641,0l-21.68,21.68C301.71,58.343,301.71,63.988,305.16,67.438L305.16,67.438z"/>
	<path fill="#A7D0EF" d="M505.801,3.812l-5.494,21.283l-6.695-6.694l-1.568-1.534c-6.736,7.116-4.767,5.419-16.347,17l-5.673-5.673
		c-3.224-3.224-6.938-5.652-10.898-7.289c-4.121-1.701-8.526-2.553-12.938-2.553c-4.413,0-8.818,0.852-12.94,2.553
		c-3.959,1.637-7.674,4.065-10.898,7.289c-35.171,35.173-17.678,35.172-52.85,0c-3.225-3.224-6.938-5.652-10.898-7.289
		c-4.123-1.701-8.527-2.553-12.939-2.553s-8.818,0.852-12.939,2.553c-3.96,1.637-7.674,4.065-10.899,7.289
		c-31.877,31.879-18.035,31.879-49.912,0c-3.225-3.224-6.939-5.652-10.899-7.289c-4.121-1.701-8.527-2.553-12.939-2.553
		s-8.817,0.852-12.938,2.553c-3.96,1.637-7.675,4.065-10.899,7.289c-31.877,31.878-18.035,31.878-49.913,0
		c-3.224-3.224-6.938-5.652-10.899-7.289c-4.121-1.701-8.526-2.553-12.938-2.553c-4.412,0-8.818,0.852-12.939,2.553
		c-3.643,1.505-11.652,8.535-21.377,17.936c-4.189,4.052-2.414,2.309-7.055,6.964C95.048,59.915,90.146,38.68,75.002,27.953
		c-4.756-3.369-8.017-5.088-11.844-6.639c-0.313-0.127-5.852-2.068-12.203-1.739c-3.709,0.192-6.333,0.507-10.207,2.477
		C23.732,30.703,7.441,53.269,5.492,54.738c-3.404,2.565-4.184,2.176-4.962,1.475c-0.423-0.381-1.177-1.401,0.571-3.682
		c1.842-2.402,18.93-23.568,38.131-34.154c3.124-1.723,7.29-2.52,11.995-2.759c4.511-0.229,12.396,1.3,14.555,2.456
		c3.939,2.109,5.972,2.799,10.214,5.576c13.938,9.123,20.911,29.531,30.582,19.621c4.647-4.762,2.995-3.025,7.273-7.142
		c9.975-9.597,18.303-16.827,22.346-18.497c4.569-1.887,9.433-2.83,14.285-2.83c4.851,0,9.714,0.943,14.283,2.83
		c4.4,1.818,8.513,4.502,12.062,8.053c28.835,28.834,16.061,28.834,44.896,0c3.549-3.551,7.661-6.234,12.062-8.053
		c4.568-1.887,9.432-2.83,14.283-2.83c4.853,0,9.716,0.943,14.284,2.83c4.4,1.818,8.513,4.502,12.063,8.053
		c28.834,28.834,16.061,28.834,44.895,0c3.551-3.551,7.663-6.234,12.063-8.053c4.568-1.887,9.432-2.83,14.284-2.83
		c4.852,0,9.715,0.943,14.283,2.83c4.401,1.818,8.514,4.502,12.064,8.053c31.193,31.193,16.638,31.193,47.831,0
		c3.55-3.551,7.663-6.234,12.063-8.053c4.568-1.887,9.432-2.83,14.284-2.83c4.851,0,9.714,0.943,14.283,2.83
		c4.401,1.818,8.514,4.502,12.062,8.053l3.139,3.138c6.605-6.862,3.549-4.2,13.603-14.548l-1.409-1.622l-6.379-6.379l21.536-5.242
		L506.648,0L505.801,3.812L505.801,3.812z"/>
	<path fill-rule="evenodd" clip-rule="evenodd" fill="none" stroke="#FFFFFF" stroke-miterlimit="10" d="M405.688,68.994
		l34.226,34.228c3.45,3.45,9.097,3.45,12.547,0l34.226-34.228c3.451-3.449,3.451-9.096,0-12.545l-21.68-21.681
		c-10.351-10.351-27.288-10.351-37.639,0l-21.68,21.681C402.236,59.898,402.236,65.545,405.688,68.994L405.688,68.994z"/>
	<text transform="matrix(1.0249 0 0 1 38.8965 79.6191)" fill="#FFFFFF" font-family="'Helvetica-Light'" font-size="43.8166">1</text>
	<text transform="matrix(1.0249 0 0 1 139.0479 79.6191)" fill="#FFFFFF" font-family="'Helvetica-Light'" font-size="43.8166">2</text>
	<text transform="matrix(1.0249 0 0 1 239.2002 79.6191)" fill="#FFFFFF" font-family="'Helvetica-Light'" font-size="43.8166">3</text>
	<text transform="matrix(1.0249 0 0 1 333.0928 79.6191)" fill="#FFFFFF" font-family="'Helvetica-Light'" font-size="43.8166">4</text>
	<text transform="matrix(1.0249 0 0 1 432.6191 79.6191)" fill="#FFFFFF" font-family="'Helvetica-Light'" font-size="43.8166">5</text>
</g>
</svg>
