<?xml version="1.0" encoding="utf-8"?>
<!-- Generator: Adobe Illustrator 16.0.0, SVG Export Plug-In . SVG Version: 6.00 Build 0)  -->
<!DOCTYPE svg PUBLIC "-//W3C//DTD SVG 1.1//EN" "http://www.w3.org/Graphics/SVG/1.1/DTD/svg11.dtd">
<svg version="1.1" id="Layer_1" xmlns="http://www.w3.org/2000/svg" xmlns:xlink="http://www.w3.org/1999/xlink" x="0px" y="0px"
	 width="313.805px" height="26.979px" viewBox="0 0 313.805 26.979" enable-background="new 0 0 313.805 26.979"
	 xml:space="preserve">
<g opacity="0.8">
	<g>
		<path fill="#FFFFFF" d="M127.377,20.615c-1.056,1.062-2.334,1.598-3.836,1.598s-2.781-0.535-3.84-1.598
			c-1.058-1.062-1.588-2.346-1.588-3.85c0-1.496,0.53-2.771,1.588-3.824c1.059-1.055,2.338-1.582,3.84-1.582s2.78,0.527,3.836,1.582
			c1.061,1.053,1.589,2.328,1.589,3.824C128.966,18.27,128.438,19.553,127.377,20.615 M120.26,13.473
			c-0.904,0.912-1.355,2.012-1.355,3.303c0,1.299,0.451,2.406,1.342,3.324c0.91,0.914,2.006,1.375,3.295,1.375
			s2.387-0.461,3.291-1.375c0.896-0.918,1.342-2.025,1.342-3.324c0-1.291-0.445-2.391-1.348-3.303
			c-0.9-0.916-1.996-1.375-3.285-1.375C122.254,12.098,121.161,12.557,120.26,13.473 M125.342,19.373
			c-0.465,0.365-1.019,0.549-1.662,0.549c-0.811,0-1.503-0.291-2.081-0.871c-0.573-0.582-0.862-1.354-0.862-2.32
			c0-0.902,0.26-1.654,0.778-2.26s1.196-0.908,2.034-0.908c0.523,0,0.997,0.104,1.424,0.316c0.731,0.379,1.129,1.01,1.194,1.893
			h-0.894c-0.045-0.371-0.197-0.691-0.467-0.963c-0.262-0.27-0.648-0.406-1.157-0.406c-0.709,0-1.227,0.32-1.545,0.961
			c-0.208,0.408-0.313,0.85-0.313,1.324c0,0.674,0.17,1.24,0.502,1.701s0.811,0.689,1.437,0.689c0.406,0,0.741-0.105,1.015-0.32
			c0.267-0.215,0.458-0.523,0.564-0.936h0.894C126.09,18.486,125.803,19.004,125.342,19.373"/>
		<path fill="#FFFFFF" d="M134.366,19.834c0.333-0.676,0.971-1.289,1.917-1.84l1.42-0.82c0.637-0.369,1.083-0.686,1.34-0.947
			c0.403-0.41,0.602-0.879,0.602-1.406c0-0.615-0.184-1.109-0.552-1.469c-0.368-0.361-0.861-0.543-1.479-0.543
			c-0.909,0-1.541,0.344-1.89,1.037c-0.186,0.369-0.291,0.883-0.309,1.539h-1.353c0.016-0.92,0.187-1.674,0.511-2.252
			c0.572-1.023,1.591-1.537,3.049-1.537c1.214,0,2.096,0.326,2.654,0.98c0.561,0.658,0.84,1.385,0.84,2.189
			c0,0.846-0.297,1.57-0.896,2.17c-0.342,0.352-0.961,0.775-1.853,1.271l-1.011,0.562c-0.482,0.268-0.861,0.52-1.139,0.76
			c-0.492,0.43-0.803,0.906-0.929,1.426h5.773v1.258h-7.259C133.85,21.301,134.043,20.508,134.366,19.834"/>
		<path fill="#FFFFFF" d="M148.807,13.324c0.473,0.871,0.711,2.066,0.711,3.584c0,1.438-0.219,2.627-0.645,3.568
			c-0.621,1.348-1.635,2.023-3.043,2.023c-1.27,0-2.214-0.551-2.836-1.654c-0.517-0.922-0.779-2.158-0.779-3.709
			c0-1.203,0.158-2.232,0.469-3.096c0.582-1.605,1.634-2.408,3.154-2.408C147.207,11.633,148.197,12.199,148.807,13.324
			 M147.469,20.373c0.408-0.611,0.613-1.75,0.613-3.414c0-1.201-0.148-2.188-0.443-2.967c-0.296-0.775-0.869-1.16-1.725-1.16
			c-0.783,0-1.355,0.365-1.721,1.102c-0.362,0.736-0.543,1.822-0.543,3.254c0,1.078,0.115,1.945,0.348,2.602
			c0.354,0.998,0.961,1.498,1.818,1.498C146.508,21.287,147.061,20.982,147.469,20.373"/>
		<path fill="#FFFFFF" d="M151.607,14.721v-1.02c0.961-0.094,1.629-0.25,2.008-0.469c0.381-0.219,0.665-0.738,0.85-1.555h1.05
			v10.535h-1.418v-7.492H151.607z"/>
		<path fill="#FFFFFF" d="M0,10.119h5.709c1.554,0,2.66,0.461,3.318,1.385c0.386,0.545,0.578,1.174,0.578,1.887
			c0,0.834-0.235,1.514-0.709,2.049c-0.247,0.281-0.601,0.539-1.059,0.771c0.673,0.258,1.184,0.549,1.517,0.871
			c0.593,0.576,0.89,1.371,0.89,2.383c0,0.852-0.272,1.619-0.803,2.309c-0.803,1.031-2.076,1.547-3.828,1.547H0V10.119z
			 M5.041,15.699c0.762,0,1.354-0.105,1.777-0.314c0.665-0.328,0.998-0.922,0.998-1.777c0-0.863-0.352-1.445-1.062-1.744
			c-0.397-0.168-0.993-0.254-1.779-0.254H1.752v4.09H5.041z M5.643,21.791c1.109,0,1.895-0.316,2.367-0.951
			c0.299-0.402,0.444-0.887,0.444-1.455c0-0.959-0.431-1.613-1.298-1.961c-0.457-0.186-1.064-0.277-1.819-0.277H1.752v4.645H5.643z"
			/>
		<path fill="#FFFFFF" d="M17.262,17.496c0.369-0.047,0.618-0.205,0.746-0.465c0.071-0.146,0.107-0.354,0.107-0.625
			c0-0.553-0.195-0.953-0.586-1.203c-0.392-0.25-0.955-0.375-1.684-0.375c-0.841,0-1.442,0.229-1.795,0.686
			c-0.193,0.254-0.322,0.631-0.387,1.127h-1.508c0.03-1.188,0.412-2.016,1.156-2.479c0.736-0.469,1.593-0.699,2.566-0.699
			c1.134,0,2.054,0.215,2.759,0.648c0.7,0.432,1.051,1.1,1.051,2.012v5.543c0,0.168,0.032,0.303,0.103,0.404
			c0.068,0.104,0.215,0.154,0.434,0.154c0.074,0,0.156-0.004,0.244-0.014c0.09-0.01,0.187-0.021,0.285-0.037v1.191
			c-0.249,0.072-0.441,0.117-0.572,0.133c-0.131,0.02-0.312,0.029-0.537,0.029c-0.559,0-0.963-0.199-1.216-0.594
			c-0.134-0.209-0.224-0.506-0.278-0.889c-0.329,0.43-0.803,0.805-1.418,1.123c-0.619,0.316-1.295,0.473-2.042,0.473
			c-0.892,0-1.62-0.27-2.186-0.811c-0.567-0.539-0.849-1.217-0.849-2.031c0-0.893,0.279-1.582,0.833-2.074
			c0.558-0.49,1.288-0.793,2.193-0.904L17.262,17.496z M13.857,21.865c0.34,0.27,0.745,0.404,1.211,0.404
			c0.568,0,1.124-0.133,1.653-0.396c0.9-0.438,1.349-1.15,1.349-2.145V18.43c-0.198,0.127-0.453,0.23-0.762,0.316
			c-0.311,0.082-0.615,0.141-0.916,0.178l-0.977,0.131c-0.588,0.074-1.027,0.195-1.323,0.363c-0.497,0.281-0.749,0.729-0.749,1.344
			C13.344,21.229,13.516,21.596,13.857,21.865"/>
		<path fill="#FFFFFF" d="M22.338,13.697h1.539v1.363c0.454-0.562,0.938-0.967,1.443-1.213c0.51-0.246,1.078-0.365,1.701-0.365
			c1.363,0,2.287,0.475,2.768,1.428c0.262,0.52,0.393,1.268,0.393,2.236v6.174h-1.645v-6.066c0-0.588-0.082-1.062-0.258-1.42
			c-0.289-0.6-0.81-0.896-1.564-0.896c-0.383,0-0.697,0.037-0.943,0.115c-0.44,0.133-0.835,0.395-1.17,0.791
			c-0.268,0.318-0.441,0.646-0.523,0.984c-0.08,0.338-0.121,0.822-0.121,1.451v5.041h-1.619V13.697z"/>
		<path fill="#FFFFFF" d="M38.931,14.207c0.681,0.529,1.09,1.436,1.226,2.725h-1.572c-0.096-0.594-0.314-1.086-0.655-1.479
			s-0.888-0.588-1.646-0.588c-1.027,0-1.766,0.502-2.207,1.506c-0.289,0.652-0.432,1.457-0.432,2.414
			c0,0.963,0.204,1.773,0.61,2.434c0.405,0.658,1.048,0.986,1.921,0.986c0.671,0,1.203-0.203,1.598-0.613
			c0.389-0.408,0.662-0.967,0.811-1.678h1.572c-0.178,1.277-0.629,2.207-1.346,2.799c-0.719,0.59-1.641,0.885-2.76,0.885
			c-1.256,0-2.26-0.459-3.007-1.377c-0.753-0.922-1.127-2.072-1.127-3.447c0-1.691,0.411-3.002,1.231-3.945
			c0.82-0.941,1.867-1.408,3.135-1.408C37.367,13.42,38.253,13.682,38.931,14.207"/>
		<path fill="#FFFFFF" d="M46.934,17.496c0.373-0.047,0.619-0.205,0.745-0.465c0.076-0.146,0.107-0.354,0.107-0.625
			c0-0.553-0.195-0.953-0.587-1.203c-0.389-0.25-0.95-0.375-1.684-0.375c-0.838,0-1.439,0.229-1.793,0.686
			c-0.197,0.254-0.325,0.631-0.384,1.127h-1.51c0.031-1.188,0.413-2.016,1.154-2.479c0.736-0.469,1.595-0.699,2.569-0.699
			c1.133,0,2.05,0.215,2.758,0.648c0.699,0.432,1.051,1.1,1.051,2.012v5.543c0,0.168,0.031,0.303,0.1,0.404
			c0.07,0.104,0.215,0.154,0.438,0.154c0.076,0,0.153-0.004,0.242-0.014c0.09-0.01,0.188-0.021,0.287-0.037v1.191
			c-0.252,0.072-0.443,0.117-0.574,0.133c-0.134,0.02-0.312,0.029-0.537,0.029c-0.559,0-0.961-0.199-1.217-0.594
			c-0.13-0.209-0.223-0.506-0.277-0.889c-0.33,0.43-0.801,0.805-1.42,1.123c-0.615,0.316-1.295,0.473-2.039,0.473
			c-0.894,0-1.619-0.27-2.188-0.811c-0.564-0.539-0.847-1.217-0.847-2.031c0-0.893,0.278-1.582,0.833-2.074
			c0.558-0.49,1.291-0.793,2.193-0.904L46.934,17.496z M43.527,21.865c0.34,0.27,0.747,0.404,1.213,0.404
			c0.568,0,1.122-0.133,1.652-0.396c0.9-0.438,1.35-1.15,1.35-2.145V18.43c-0.198,0.127-0.451,0.23-0.764,0.316
			c-0.309,0.082-0.617,0.141-0.914,0.178l-0.979,0.131c-0.586,0.074-1.023,0.195-1.32,0.363c-0.5,0.281-0.75,0.729-0.75,1.344
			C43.016,21.229,43.186,21.596,43.527,21.865"/>
		<polygon fill="#FFFFFF" points="51.652,19.385 51.652,17.875 55.567,17.875 55.567,13.93 57.108,13.93 57.108,17.875 
			61.023,17.875 61.023,19.385 57.108,19.385 57.108,23.32 55.567,23.32 55.567,19.385 		"/>
		<path fill="#FFFFFF" d="M68.043,10.119h2.561l3.797,11.16l3.766-11.16h2.544V23.32h-1.708v-7.791c0-0.27,0.01-0.717,0.021-1.34
			c0.01-0.621,0.016-1.291,0.016-2.002L75.271,23.32h-1.769l-3.809-11.133v0.404c0,0.322,0.011,0.812,0.026,1.477
			c0.019,0.66,0.028,1.15,0.028,1.461v7.791h-1.705V10.119z"/>
		<path fill="#FFFFFF" d="M90.172,14.658c0.852,0.824,1.275,2.039,1.275,3.645c0,1.551-0.373,2.83-1.125,3.842
			c-0.748,1.01-1.908,1.518-3.486,1.518c-1.316,0-2.358-0.449-3.135-1.344c-0.77-0.895-1.156-2.098-1.156-3.605
			c0-1.615,0.407-2.9,1.223-3.859c0.813-0.957,1.906-1.434,3.283-1.434C88.28,13.42,89.319,13.832,90.172,14.658 M89.172,21.053
			c0.391-0.811,0.589-1.713,0.589-2.707c0-0.896-0.142-1.627-0.427-2.189c-0.448-0.885-1.227-1.328-2.33-1.328
			c-0.978,0-1.688,0.375-2.132,1.131c-0.442,0.754-0.665,1.664-0.665,2.729c0,1.023,0.223,1.875,0.665,2.559
			c0.444,0.682,1.149,1.023,2.116,1.023C88.047,22.27,88.773,21.863,89.172,21.053 M88.959,9.824l-2.398,2.596h-1.243l1.647-2.596
			H88.959z"/>
		<polygon fill="#FFFFFF" points="94.229,13.697 96.803,21.531 99.478,13.697 101.248,13.697 97.626,23.32 95.902,23.32 
			92.354,13.697 		"/>
		<path fill="#FFFFFF" d="M102.637,10.119h1.644v1.834h-1.644V10.119z M102.637,13.74h1.644v9.578h-1.644V13.74z"/>
		<rect x="106.77" y="10.119" fill="#FFFFFF" width="1.617" height="13.203"/>
		<g>
			<path fill="#FFFFFF" d="M310.276,11.525v-0.051c2.213-0.264,3.529-2.238,3.529-4.373c0-3.584-2.342-4.4-6.109-4.4h-7.904
				l-3.953,18.809h10.037c3.766,0,7.193-2.078,7.193-6.162C313.069,13.529,312.067,12.002,310.276,11.525z M305.692,18.297h-5.188
				l0,0h-0.209l1.107-5.164h4.059c0.021,0,0.039,0.002,0.059,0.002h0.145c1.504,0,3.268,0.158,3.268,2.133
				C308.932,17.268,307.563,18.297,305.692,18.297z M306.877,10.316h-4.688l0,0h-0.207l0.922-4.4h4.373c0.008,0,0.016,0,0.021,0
				h0.182c1.346,0,2.189,0.502,2.189,1.922C309.67,9.473,308.381,10.316,306.877,10.316z"/>
			<g>
				<path fill="#FFFFFF" d="M179.13,14.244c-0.929,0-1.768,0.426-2.327,1.148l-0.028-0.029l0.811-3.842h-1.253l-2.221,10.508h1.117
					l0.28-1.412h0.029c0.162,0.75,1.161,1.59,2.561,1.59c2.575,0,4.018-2.312,4.018-4.682
					C182.116,15.584,181.159,14.244,179.13,14.244z M178.099,21.102c-1.235,0-2.075-0.705-2.075-1.898
					c0-1.617,0.913-3.855,3.106-3.855c1.162,0,1.733,0.973,1.733,2.178C180.863,19.012,179.908,21.102,178.099,21.102z"/>
				<path fill="#FFFFFF" d="M184.49,20.557h-0.031l-0.881-6.049h-1.34l1.34,7.607l-0.766,1.266
					c-0.294,0.484-0.617,0.824-1.179,0.824c-0.221,0-0.53-0.09-0.721-0.207l-0.221,1.014c0.236,0.121,0.575,0.193,0.869,0.193
					c1.28,0,1.839-0.809,2.457-1.795l5.032-8.902h-1.367L184.49,20.557z"/>
			</g>
			<polygon fill="#FFFFFF" points="218.073,11.783 217.6,12.748 218.036,11.971 			"/>
			<g>
				<path fill="#FFFFFF" d="M206.896,15.049c0-3.76-2.322-5.023-5.612-5.877c-1.44-0.352-4.997-0.881-4.997-2.967
					c0-1.943,1.91-2.617,3.674-2.617c2.146,0,5.869,0.277,6.432,2.68h3.986c-0.559-5.062-5.862-6.264-10.153-6.264
					c-4.056,0-8.317,1.85-8.317,6.523c0,3.613,2.646,4.818,5.29,5.643c2.616,0.793,5.32,1.205,5.32,3.262
					c0,2.086-2.145,2.969-3.998,2.969c-2.643,0-4.673-0.91-4.525-3.881h-4.377c0,5.057,2.938,7.465,8.728,7.465
					C202.341,21.984,206.896,20.072,206.896,15.049z"/>
				<path fill="#FFFFFF" d="M227.596,6.777c-2.051,0-3.744,0.807-5.021,2.389h-0.055l0.445-2h-1.242l-3.886,7.883l-1.643,6.463
					h3.939l1.609-7.631c0.416-1.996,1.639-3.994,4.023-3.994c0.916,0,1.887,0.611,1.887,1.473c0,0.387-0.137,1.328-0.25,1.746
					l-1.746,8.406h3.938l1.777-8.406c0.109-0.5,0.418-1.887,0.418-2.469C231.789,8.139,230.316,6.777,227.596,6.777z"/>
				<path fill="#FFFFFF" d="M218.073,12.514l2.619-5.348h-1.501h-2.23l-4.969,10.268h-0.055l-1.248-10.268h-4.05l2.553,14.207
					c-0.528,0.75-0.751,1.943-2.608,1.943c-0.527,0-1.084-0.168-1.61-0.168l-0.666,3.275c0.694,0.027,1.416,0.137,2.108,0.137
					c2.97,0,4.217-0.553,5.577-3.023l5.609-10.059L218.073,12.514z"/>
				<g>
					<path fill="#FFFFFF" d="M245.917,15.375c0.139-0.693,0.223-1.471,0.223-2.246c0-4.164-2.691-6.273-6.69-6.273
						c-4.883,0-7.906,4.273-7.906,8.854c0,4.078,2.553,6.27,6.383,6.27c4.135,0,6.186-1.721,7.434-4.939h-3.939
						c-0.584,0.918-1.36,1.971-2.942,1.971c-2.135,0-3.164-1.137-3.164-2.801c0-0.225,0-0.473,0.029-0.834H245.917z M239.672,9.826
						c2.303,0,2.663,1.58,2.663,3.053h-6.577C236.344,11.268,237.451,9.826,239.672,9.826z"/>
				</g>
				<path fill="#FFFFFF" d="M256.266,6.855c-0.025,0-0.053,0.006-0.08,0.006c0.033-0.002,0.062-0.002,0.096-0.004
					C256.278,6.857,256.272,6.855,256.266,6.855z"/>
				<path fill="#FFFFFF" d="M256.682,10.77l0.039-0.193l-0.203-0.174c-0.062,0.096-0.123,0.195-0.184,0.297
					C256.452,10.725,256.567,10.746,256.682,10.77z"/>
				<path fill="#FFFFFF" d="M278.069,11.752l-3.264,5.713h-0.055l-1.248-10.268h-1.693l-0.998,5.482l1.193,8.725
					c-0.527,0.75-0.75,1.943-2.607,1.943c-0.527,0-1.084-0.168-1.611-0.168l-0.666,3.277c0.695,0.025,1.416,0.137,2.109,0.137
					c2.969,0,4.146,0.527,5.506-1.941l3.84-6.666C277.895,15.541,277.584,13.988,278.069,11.752z"/>
				<path fill="#FFFFFF" d="M255.446,10.539c0.111-0.203,0.229-0.402,0.352-0.588c0.336-0.51,0.705-0.955,1.086-1.342
					c0.596-0.604,1.014-1.07,1.568-1.412c-1.494-0.336-1.744-0.35-2.17-0.34c-0.033,0.002-0.062,0.002-0.096,0.004
					c-0.146,0.002-0.295,0.014-0.439,0.027c-0.158,0.016-0.283,0.037-0.389,0.055c-1.742,0.262-3.273,1.256-4.031,2.936
					l-0.055-0.053l0.582-2.582h-3.744l-3,14.346h3.941l1.332-6.354c0.527-2.441,1.609-4.717,4.633-4.717
					C255.241,10.52,255.223,10.506,255.446,10.539z"/>
				<path fill="#FFFFFF" d="M269.377,15.084h-0.002l0.752-4.129l0.684-3.758V7.195h-3.549l-0.445,2.193h-0.055
					c-0.805-1.885-2.414-2.58-4.385-2.58c-0.559,0-1.086,0.066-1.584,0.189c-0.156,0.055-0.736,0.17-1.297,0.482
					c-0.811,0.451-1.715,1.119-2.604,2.287c-0.119,0.156-0.262,0.463-0.375,0.635l0.203,0.174l-0.039,0.193
					c-0.115-0.023-0.23-0.045-0.348-0.07c-0.068,0.121-0.137,0.24-0.203,0.365c-0.648,1.357-0.996,2.896-0.996,4.402
					c0,3.521,2.109,5.854,5.521,5.854c1.609,0,2.914-0.664,3.939-2.027l0.055,0.059c-0.775,2.801-1.496,4.994-3.994,4.994
					c-1.275,0-2.637-0.609-2.582-2.055h-3.938c0,3.441,3.217,4.691,6.131,4.691c4.746,0,6.939-1.834,7.908-6.188L269.377,15.084z
					 M261.739,18.352c-1.83,0-2.664-1.471-2.664-3.164c0-2.303,1.389-5.41,4.025-5.41c1.914,0,2.828,1.305,2.828,3.107
					C265.928,15.328,264.571,18.352,261.739,18.352z"/>
				<path fill="#FFFFFF" d="M259.497,7.48c0.047,0.021,0.096,0.037,0.143,0.057c0.562-0.312,0.998-0.484,1.154-0.539
					C260.334,7.113,259.905,7.279,259.497,7.48z"/>
				<path fill="#FFFFFF" d="M256.319,10.697c-0.064,0.121-0.127,0.242-0.188,0.367c0.066-0.125,0.135-0.244,0.203-0.365
					C256.329,10.699,256.325,10.699,256.319,10.697z"/>
				<path fill="#FFFFFF" d="M256.518,10.402l-0.025-0.021c-0.061,0.105-0.119,0.209-0.174,0.316c0.006,0.002,0.01,0.002,0.016,0.002
					C256.395,10.598,256.456,10.498,256.518,10.402z"/>
				<path fill="#FFFFFF" d="M256.864,9.908l0.029-0.141c-0.141,0.197-0.275,0.402-0.4,0.613l0.025,0.021
					C256.631,10.23,256.743,10.064,256.864,9.908z"/>
			</g>
			<path fill="#FFFFFF" d="M282.903,11.76c0-0.004,0-0.008,0-0.012c0.057-0.406,0.121-0.6,0.26-1.098
				c0.004-0.027,0.014-0.053,0.021-0.078c0.053-0.186,0.107-0.373,0.172-0.564c0.732-2.119,2.193-3.924,4.459-4.387
				c0.016-0.004,0.027-0.01,0.045-0.014c0,0,0.049-0.008,0.115-0.016c0.314-0.057,0.639-0.094,0.982-0.094
				c1.266,0,2.252,0.293,2.912,0.926c0.084,0.072,0.162,0.15,0.236,0.234c0.012,0.016,0.023,0.031,0.035,0.049
				c0.387,0.465,0.643,1.096,0.637,1.98h4.135c0-0.473-0.057-0.902-0.133-1.322c-0.189-0.943-0.652-2.223-1.738-3.293
				c-0.094-0.088-0.178-0.182-0.277-0.264c-0.117-0.102-0.248-0.199-0.377-0.295c-0.684-0.479-1.465-0.85-2.338-1.094
				c-0.012-0.004-0.025-0.006-0.037-0.01c-0.402-0.111-0.828-0.186-1.26-0.25c-0.125-0.016-0.246-0.037-0.381-0.051
				c-0.418-0.047-0.846-0.074-1.283-0.078c-1.252,0.006-3.385,0.229-5.416,1.465c-0.123,0.078-0.242,0.166-0.361,0.25
				c-0.178,0.119-0.354,0.232-0.529,0.369c-0.252,0.205-0.494,0.428-0.73,0.658c-0.053,0.053-0.109,0.096-0.164,0.152
				c-0.107,0.113-0.203,0.238-0.311,0.357c-1.025,1.174-1.898,2.748-2.424,4.9c-0.07,0.309-0.135,0.631-0.189,0.965
				c0,0.014-0.002,0.027-0.004,0.045c-0.049,0.307-0.082,0.629-0.105,0.957c-0.012,0.115-0.018,0.236-0.023,0.357
				c-0.016,0.283-0.023,0.568-0.018,0.863c0,0.084,0.002,0.174,0.002,0.26c0.027,0.805,0.039,1.264,0.244,2.143
				c0.102,0.441,0.262,0.9,0.42,1.357l3.404-5.182C282.891,11.883,282.893,11.828,282.903,11.76z"/>
			<path fill="#FFFFFF" d="M288.1,14.424h4.346c-0.713,2.396-2.084,4.057-5.217,4.057c-2.986,0-4.25-2.244-4.264-4.811l-2.961,4.756
				c1.344,2.281,3.805,3.531,7.172,3.531c1.74,0,3.502-0.684,4.742-2.371h0.053v1.924h2.609l2.158-10.168h-7.982L288.1,14.424z"/>
		</g>
		<g>
			<path fill="#FFFFFF" d="M165.867,11.482v0.973l-4.745,9.928h-1.526l4.729-9.643v-0.033h-5.332v-1.225H165.867z"/>
		</g>
	</g>
</g>
</svg>
