<?xml version="1.0" encoding="utf-8"?>
<!-- Generator: Adobe Illustrator 16.0.0, SVG Export Plug-In . SVG Version: 6.00 Build 0)  -->
<!DOCTYPE svg PUBLIC "-//W3C//DTD SVG 1.1//EN" "http://www.w3.org/Graphics/SVG/1.1/DTD/svg11.dtd">
<svg version="1.1" id="Layer_1" xmlns="http://www.w3.org/2000/svg" xmlns:xlink="http://www.w3.org/1999/xlink" x="0px" y="0px"
	 width="207.373px" height="40.049px" viewBox="0 0 207.373 40.049" enable-background="new 0 0 207.373 40.049"
	 xml:space="preserve">
<g>
	<g>
		<path fill="#FFFFFF" d="M202.133,17.105v-0.078c3.285-0.393,5.24-3.32,5.24-6.492c0-5.318-3.482-6.531-9.069-6.531h-11.737
			l-5.865,27.92h14.899c5.589,0,10.677-3.086,10.677-9.152C206.277,20.08,204.789,17.809,202.133,17.105z M195.329,27.154h-7.703
			l0,0h-0.308l1.641-7.67h6.021c0.036,0,0.062,0.006,0.092,0.006h0.213c2.238,0,4.852,0.236,4.852,3.168
			C200.137,25.631,198.104,27.154,195.329,27.154z M197.087,15.311h-6.959l0,0h-0.306l1.367-6.533h6.492h0.03h0.272
			c1.998,0,3.248,0.744,3.248,2.855C201.232,14.057,199.318,15.311,197.087,15.311z"/>
		<g>
			<path fill="#FFFFFF" d="M7.449,21.141c-1.375,0-2.623,0.633-3.455,1.701l-0.04-0.041l1.2-5.703H3.299L0,32.699h1.656l0.418-2.102
				h0.041c0.242,1.111,1.729,2.359,3.801,2.359c3.824,0,5.967-3.432,5.967-6.945C11.883,23.127,10.462,21.141,7.449,21.141z
				 M5.916,31.318c-1.829,0-3.074-1.049-3.074-2.818c0-2.398,1.355-5.723,4.607-5.723c1.723,0,2.576,1.445,2.576,3.234
				C10.025,28.215,8.604,31.318,5.916,31.318z"/>
			<path fill="#FFFFFF" d="M15.41,30.508h-0.048l-1.31-8.977h-1.988l1.988,11.293l-1.142,1.875c-0.43,0.719-0.912,1.227-1.743,1.227
				c-0.326,0-0.787-0.135-1.07-0.307L9.77,37.123c0.352,0.178,0.854,0.287,1.287,0.287c1.904,0,2.732-1.201,3.65-2.666l7.475-13.213
				h-2.037L15.41,30.508z"/>
		</g>
		<polygon fill="#FFFFFF" points="65.266,17.486 64.557,18.92 65.201,17.764 		"/>
		<g>
			<path fill="#FFFFFF" d="M48.668,22.338c0-5.586-3.445-7.463-8.332-8.73c-2.137-0.52-7.418-1.307-7.418-4.402
				c0-2.885,2.834-3.885,5.455-3.885c3.184,0,8.711,0.414,9.546,3.977h5.919C53.004,1.787,45.135,0,38.766,0
				C32.745,0,26.42,2.746,26.42,9.684c0,5.363,3.925,7.154,7.85,8.375c3.887,1.18,7.898,1.787,7.898,4.84
				c0,3.098-3.187,4.408-5.934,4.408c-3.926,0-6.939-1.352-6.715-5.758h-6.502c0,7.504,4.362,11.08,12.959,11.08
				C41.904,32.629,48.668,29.793,48.668,22.338z"/>
			<path fill="#FFFFFF" d="M79.395,10.059c-3.042,0-5.557,1.191-7.449,3.541h-0.083l0.659-2.963h-1.84L64.908,22.33l-2.438,9.598
				h5.85l2.387-11.326c0.619-2.963,2.434-5.932,5.971-5.932c1.359,0,2.805,0.908,2.805,2.189c0,0.572-0.204,1.969-0.373,2.59
				l-2.592,12.479h5.845l2.64-12.479c0.162-0.742,0.617-2.799,0.617-3.666C85.619,12.074,83.436,10.059,79.395,10.059z"/>
			<path fill="#FFFFFF" d="M65.266,18.568l3.885-7.932h-2.232h-3.314l-7.375,15.232h-0.08l-1.852-15.232h-6.01l3.783,21.084
				c-0.781,1.113-1.111,2.883-3.867,2.883c-0.781,0-1.608-0.25-2.395-0.25l-0.986,4.867c1.031,0.037,2.104,0.201,3.133,0.201
				c4.402,0,6.262-0.822,8.273-4.49l8.328-14.93L65.266,18.568z"/>
			<g>
				<path fill="#FFFFFF" d="M106.59,22.818c0.209-1.033,0.334-2.186,0.334-3.336c0-6.182-3.995-9.311-9.934-9.311
					c-7.245,0-11.734,6.344-11.734,13.141c0,6.055,3.79,9.309,9.474,9.309c6.14,0,9.181-2.557,11.038-7.332h-5.85
					c-0.863,1.359-2.02,2.922-4.367,2.922c-3.168,0-4.693-1.686-4.693-4.158c0-0.33,0-0.701,0.041-1.234H106.59z M97.326,14.582
					c3.416,0,3.951,2.344,3.951,4.531h-9.762C92.383,16.721,94.028,14.582,97.326,14.582z"/>
			</g>
			<path fill="#FFFFFF" d="M121.957,10.172c-0.039,0-0.082,0.012-0.117,0.012c0.047-0.006,0.092-0.006,0.141-0.008L121.957,10.172z"
				/>
			<path fill="#FFFFFF" d="M122.572,15.984l0.061-0.291l-0.301-0.262c-0.094,0.148-0.184,0.295-0.271,0.449
				C122.232,15.914,122.402,15.943,122.572,15.984z"/>
			<path fill="#FFFFFF" d="M154.318,17.439l-4.842,8.477h-0.078l-1.859-15.236h-2.506l-1.49,8.139l1.775,12.949
				c-0.779,1.111-1.113,2.885-3.869,2.885c-0.781,0-1.609-0.248-2.393-0.248l-0.986,4.861c1.029,0.039,2.101,0.203,3.129,0.203
				c4.41,0,6.154,0.785,8.172-2.881l5.703-9.896C154.064,23.062,153.604,20.758,154.318,17.439z"/>
			<path fill="#FFFFFF" d="M120.738,15.641c0.168-0.305,0.341-0.596,0.521-0.877c0.496-0.756,1.049-1.416,1.611-1.988
				c0.887-0.896,1.504-1.588,2.328-2.096c-2.215-0.496-2.584-0.52-3.219-0.504c-0.049,0.002-0.094,0.002-0.141,0.008
				c-0.221,0-0.438,0.02-0.654,0.039c-0.236,0.021-0.42,0.055-0.576,0.08c-2.586,0.385-4.864,1.865-5.986,4.359l-0.08-0.08
				l0.865-3.834h-5.557l-4.454,21.295h5.85l1.974-9.432c0.787-3.627,2.392-7.002,6.881-7.002
				C120.436,15.609,120.406,15.592,120.738,15.641z"/>
			<path fill="#FFFFFF" d="M141.422,22.381h-0.008l1.121-6.125l1.008-5.576v-0.002h-5.262l-0.666,3.254h-0.084
				c-1.187-2.797-3.578-3.83-6.506-3.83c-0.822,0-1.607,0.102-2.348,0.281c-0.236,0.084-1.094,0.254-1.924,0.719
				c-1.209,0.67-2.547,1.658-3.869,3.391c-0.175,0.232-0.386,0.688-0.553,0.939l0.301,0.262l-0.061,0.291
				c-0.17-0.041-0.34-0.07-0.512-0.104c-0.104,0.174-0.207,0.35-0.305,0.539c-0.961,2.016-1.479,4.299-1.479,6.531
				c0,5.232,3.133,8.693,8.195,8.693c2.394,0,4.326-0.986,5.848-3.012l0.084,0.086c-1.154,4.156-2.223,7.412-5.932,7.412
				c-1.893,0-3.908-0.904-3.832-3.047h-5.846c0,5.109,4.777,6.965,9.104,6.965c7.043,0,10.299-2.725,11.738-9.188L141.422,22.381z
				 M130.082,27.238c-2.715,0-3.959-2.184-3.959-4.697c0-3.418,2.064-8.029,5.972-8.029c2.847,0,4.206,1.934,4.206,4.611
				C136.301,22.746,134.285,27.238,130.082,27.238z"/>
			<path fill="#FFFFFF" d="M126.754,11.102c0.07,0.029,0.145,0.053,0.207,0.084c0.838-0.467,1.48-0.719,1.717-0.803
				C127.99,10.555,127.357,10.799,126.754,11.102z"/>
			<path fill="#FFFFFF" d="M122.035,15.875c-0.096,0.176-0.19,0.359-0.279,0.545c0.098-0.189,0.201-0.365,0.305-0.539
				C122.049,15.875,122.043,15.875,122.035,15.875z"/>
			<path fill="#FFFFFF" d="M122.332,15.432l-0.036-0.025c-0.093,0.154-0.181,0.311-0.261,0.469c0,0,0.014,0,0.025,0.006
				C122.148,15.727,122.238,15.58,122.332,15.432z"/>
			<path fill="#FFFFFF" d="M122.848,14.701l0.037-0.209c-0.207,0.295-0.404,0.6-0.589,0.914l0.036,0.025
				C122.499,15.18,122.666,14.932,122.848,14.701z"/>
		</g>
		<path fill="#FFFFFF" d="M161.498,17.453c0-0.006,0-0.014,0-0.02c0.082-0.604,0.18-0.887,0.382-1.631
			c0.011-0.039,0.024-0.078,0.033-0.115c0.077-0.275,0.161-0.553,0.258-0.838c1.089-3.145,3.258-5.822,6.62-6.51
			c0.021-0.008,0.037-0.016,0.061-0.023c0,0,0.077-0.01,0.177-0.023c0.462-0.08,0.946-0.135,1.46-0.135
			c1.877,0,3.338,0.432,4.318,1.371c0.122,0.109,0.242,0.227,0.35,0.352c0.022,0.023,0.037,0.045,0.058,0.07
			c0.573,0.688,0.95,1.627,0.94,2.936h6.141c0-0.699-0.088-1.338-0.193-1.959c-0.284-1.4-0.971-3.299-2.586-4.889
			c-0.141-0.129-0.26-0.268-0.408-0.393c-0.176-0.148-0.371-0.295-0.562-0.436c-1.014-0.707-2.172-1.264-3.471-1.623
			c-0.02-0.006-0.036-0.012-0.055-0.016c-0.596-0.164-1.229-0.277-1.869-0.367c-0.189-0.027-0.367-0.061-0.566-0.078
			c-0.617-0.07-1.255-0.109-1.903-0.117c-1.86,0.01-5.026,0.342-8.042,2.174c-0.18,0.117-0.357,0.246-0.537,0.375
			c-0.263,0.176-0.523,0.342-0.781,0.543c-0.379,0.307-0.736,0.641-1.087,0.979c-0.075,0.078-0.161,0.145-0.243,0.225
			c-0.162,0.168-0.305,0.359-0.462,0.531c-1.521,1.742-2.816,4.08-3.595,7.275c-0.107,0.461-0.205,0.936-0.284,1.432
			c0,0.021-0.009,0.043-0.009,0.066c-0.068,0.461-0.117,0.932-0.15,1.422c-0.018,0.17-0.028,0.35-0.035,0.529
			c-0.026,0.42-0.035,0.846-0.026,1.281c0,0.125,0,0.26,0,0.387c0.044,1.193,0.062,1.875,0.362,3.18
			c0.15,0.658,0.391,1.336,0.627,2.016l5.051-7.693C161.479,17.635,161.482,17.553,161.498,17.453z"/>
		<path fill="#FFFFFF" d="M169.212,21.406h6.454c-1.061,3.557-3.094,6.021-7.747,6.021c-4.429,0-6.31-3.33-6.329-7.141l-4.396,7.061
			c1.996,3.383,5.651,5.242,10.648,5.242c2.581,0,5.197-1.018,7.039-3.521h0.08v2.855h3.87l3.206-15.094h-11.85L169.212,21.406z"/>
	</g>
</g>
</svg>
