<?xml version="1.0" encoding="utf-8"?>
<!-- Generator: Adobe Illustrator 16.0.0, SVG Export Plug-In . SVG Version: 6.00 Build 0)  -->
<!-- This is my version -->
<!DOCTYPE svg PUBLIC "-//W3C//DTD SVG 1.1//EN" "http://www.w3.org/Graphics/SVG/1.1/DTD/svg11.dtd">
<svg version="1.1" id="Layer_1" xmlns="http://www.w3.org/2000/svg" xmlns:xlink="http://www.w3.org/1999/xlink" x="0px" y="0px"
	 width="22.3px" height="28.4px" viewBox="0 0 22.3 28.4" enable-background="new 0 0 22.3 28.4" xml:space="preserve">
<g>
	<path fill="#116CA6" d="M1.5,9.4h15.7l-3.8,3.7c-0.3,0.3-0.4,0.6-0.4,1c0,0.4,0.2,0.8,0.4,1c0.3,0.3,0.7,0.4,1.1,0.4
		c0.4,0,0.8-0.2,1.1-0.4l6.3-6.3c0.6-0.6,0.6-1.5,0-2.1l-6.3-6.3c-0.6-0.6-1.5-0.6-2.1,0c-0.6,0.6-0.6,1.5,0,2.1l3.8,3.8H1.5
		C0.7,6.4,0,7,0,7.9C0,8.7,0.7,9.4,1.5,9.4z"/>
	<path fill="#116CA6" d="M20.8,19.4H5.1l3.8-3.9c0.6-0.6,0.6-1.6,0-2.2c-0.6-0.6-1.5-0.6-2.1,0l-6.3,6.3c-0.3,0.3-0.4,0.6-0.4,1
		c0,0.4,0.2,0.8,0.4,1.1L6.8,28c0.3,0.3,0.7,0.4,1.1,0.4s0.8-0.2,1.1-0.4c0.3-0.3,0.4-0.7,0.4-1.1S9.1,26.3,8.9,26l-3.8-3.6h15.7
		c0.8,0,1.5-0.7,1.5-1.5S21.6,19.4,20.8,19.4z"/>
</g>
</svg>
