<?xml version="1.0" encoding="utf-8"?>
<!-- Generator: Adobe Illustrator 16.0.0, SVG Export Plug-In . SVG Version: 6.00 Build 0)  -->
<!DOCTYPE svg PUBLIC "-//W3C//DTD SVG 1.1//EN" "http://www.w3.org/Graphics/SVG/1.1/DTD/svg11.dtd">
<svg version="1.1" id="Layer_1" xmlns="http://www.w3.org/2000/svg" xmlns:xlink="http://www.w3.org/1999/xlink" x="0px" y="0px"
	 width="27px" height="27px" viewBox="0 0 27 27" enable-background="new 0 0 27 27" xml:space="preserve">
<g>
	<g>
		<g>
			<circle id="SVGID_14_" fill="#FFFFFF" cx="13.5" cy="13.5" r="13.5"/>
		</g>
		<g>
			<defs>
				<circle id="SVGID_1_" cx="13.5" cy="13.5" r="13.5"/>
			</defs>
			<clipPath id="SVGID_2_">
				<use xlink:href="#SVGID_1_"  overflow="visible"/>
			</clipPath>
			<path clip-path="url(#SVGID_2_)" fill="#1A425F" d="M12.851,10.255c0,0,2.692-0.749,2.951-1.42
				c0.264-0.667,1.428-5.605-0.469-6.348c-1.897-0.74-4.734,0.379-5.344,1.939C9.381,5.987,7.663,11.923,11.258,18.5
				c3.597,6.576,8.292,8.151,9.254,8.099c0.962-0.052,4.343-1.472,4.294-3.546c-0.046-2.072-3.763-3.952-4.845-4.031
				c-1.082-0.08-2.684,1.827-2.684,1.827s-2.478-2.645-3.466-5.598C12.825,12.297,12.851,10.255,12.851,10.255z"/>
		</g>
	</g>
</g>
</svg>
