<?xml version="1.0" encoding="utf-8"?>
<!-- Generator: Adobe Illustrator 16.0.0, SVG Export Plug-In . SVG Version: 6.00 Build 0)  -->
<!DOCTYPE svg PUBLIC "-//W3C//DTD SVG 1.1//EN" "http://www.w3.org/Graphics/SVG/1.1/DTD/svg11.dtd">
<svg version="1.1" id="Layer_1" xmlns="http://www.w3.org/2000/svg" xmlns:xlink="http://www.w3.org/1999/xlink" x="0px" y="0px"
	 width="156.387px" height="156.389px" viewBox="0 0 156.387 156.389" enable-background="new 0 0 156.387 156.389"
	 xml:space="preserve">
<g opacity="0.7">
	<path fill="#FFFFFF" d="M64.047,69.931c0,0,10.325-2.879,11.329-5.45c1.016-2.568,5.481-21.53-1.806-24.382
		c-7.29-2.845-18.174,1.454-20.515,7.446c-2.342,5.994-8.936,28.796,4.874,54.054c13.809,25.256,31.84,31.311,35.534,31.105
		c3.689-0.194,16.679-5.654,16.495-13.617c-0.177-7.959-14.458-15.177-18.608-15.484c-4.158-0.305-10.317,7.02-10.317,7.02
		s-9.508-10.154-13.296-21.5C63.946,77.772,64.047,69.931,64.047,69.931z"/>
</g>
<g>
	<path fill="none" stroke="#FFFFFF" stroke-width="3" stroke-miterlimit="10" d="M49.333,7.115
		c27.696-11.23,60.627-5.614,83.091,16.849c29.95,29.95,29.95,78.51,0,108.461c-29.951,29.951-78.512,29.951-108.462,0.001
		C8.987,117.45,1.5,97.822,1.5,78.194"/>
</g>
</svg>
