<?xml version="1.0" encoding="utf-8"?>
<!-- Generator: Adobe Illustrator 16.0.0, SVG Export Plug-In . SVG Version: 6.00 Build 0)  -->
<!DOCTYPE svg PUBLIC "-//W3C//DTD SVG 1.1//EN" "http://www.w3.org/Graphics/SVG/1.1/DTD/svg11.dtd">
<svg version="1.1" id="Layer_1" xmlns="http://www.w3.org/2000/svg" xmlns:xlink="http://www.w3.org/1999/xlink" x="0px" y="0px"
	 width="154.793px" height="156.388px" viewBox="0 0 154.793 156.388" enable-background="new 0 0 154.793 156.388"
	 xml:space="preserve">
<g>
	<defs>
		<rect id="SVGID_1_" x="-653.092" y="-447.237" width="540" height="960"/>
	</defs>
	<clipPath id="SVGID_2_">
		<use xlink:href="#SVGID_1_"  overflow="visible"/>
	</clipPath>
	<g clip-path="url(#SVGID_2_)">
		
			<image overflow="visible" width="1400" height="1867" xlink:href="FBCFF56B5839D4EE.jpg"  transform="matrix(0.5172 0 0 0.5146 -656.207 -447.2368)">
		</image>
	</g>
</g>
<g>
	<g>
		<path fill="#FFFFFF" d="M98.703,32.764h-45.9c-3.822,0-6.953,3.134-6.953,6.953v89.049c0,3.824,3.131,6.955,6.953,6.955h45.9
			c3.816,0,6.949-3.131,6.949-6.955V39.717C105.652,35.897,102.52,32.764,98.703,32.764L98.703,32.764z M68.414,37.772h14.673
			c0.474,0,0.847,0.377,0.847,0.853c0,0.457-0.373,0.826-0.847,0.826H68.414c-0.479,0-0.851-0.369-0.851-0.826
			C67.563,38.149,67.935,37.772,68.414,37.772L68.414,37.772z M75.75,132.248c-1.93,0-3.474-1.556-3.474-3.482
			c0-1.922,1.544-3.473,3.474-3.473c1.925,0,3.473,1.551,3.473,3.473C79.223,130.692,77.675,132.248,75.75,132.248L75.75,132.248z
			 M100.812,122.85H50.687V43.795h50.126V122.85z M100.812,122.85"/>
	</g>
</g>
<path fill="none" stroke="#FFFFFF" stroke-width="3" stroke-miterlimit="10" d="M51.855,5.579C59.618,2.935,67.941,1.5,76.6,1.5
	c42.356,0,76.693,34.337,76.693,76.693c0,42.357-34.337,76.694-76.693,76.694c-37.053,0-67.967-26.274-75.13-61.208"/>
</svg>
