<?xml version="1.0" encoding="utf-8"?>
<!-- Generator: Adobe Illustrator 16.0.0, SVG Export Plug-In . SVG Version: 6.00 Build 0)  -->
<!DOCTYPE svg PUBLIC "-//W3C//DTD SVG 1.1//EN" "http://www.w3.org/Graphics/SVG/1.1/DTD/svg11.dtd">
<svg version="1.1" id="Layer_1" xmlns="http://www.w3.org/2000/svg" xmlns:xlink="http://www.w3.org/1999/xlink" x="0px" y="0px"
	 width="150.243px" height="137.319px" viewBox="0 0 150.243 137.319" enable-background="new 0 0 150.243 137.319"
	 xml:space="preserve">
<g>
	<defs>
		<rect id="SVGID_1_" x="-665.425" y="-755.303" width="540" height="960"/>
	</defs>
	<clipPath id="SVGID_2_">
		<use xlink:href="#SVGID_1_"  overflow="visible"/>
	</clipPath>
	<g transform="matrix(1 0 0 1 0 -6.103516e-05)" clip-path="url(#SVGID_2_)">
		
			<image overflow="visible" width="1400" height="1867" xlink:href="FBE0CB84CC567D80.jpg"  transform="matrix(0.5172 0 0 0.5146 -668.54 -755.3032)">
		</image>
	</g>
</g>
<g opacity="0.7">
	<g>
		<path fill="#FFFFFF" d="M72.006,16.45c-21.225,0-38.489,17.269-38.489,38.494c0,8.991,3.098,17.276,8.286,23.834l30.203,37.977
			l30.201-37.977c5.19-6.558,8.289-14.843,8.289-23.834C110.496,33.719,93.229,16.45,72.006,16.45z M72.006,71.758
			c-9.555,0-17.324-7.775-17.324-17.331c0-9.551,7.77-17.324,17.324-17.324c9.55,0,17.327,7.773,17.327,17.324
			C89.333,63.982,81.562,71.758,72.006,71.758z"/>
	</g>
</g>
<g>
	<path fill="none" stroke="#FFFFFF" stroke-width="3" stroke-miterlimit="10" d="M122.239,1.134
		c16.234,14.062,26.504,34.828,26.504,57.992c0,42.356-34.337,76.693-76.694,76.693c-31.768,0-59.024-19.314-70.667-46.84"/>
</g>
</svg>
