<?xml version="1.0" encoding="utf-8"?>
<!-- Generator: Adobe Illustrator 16.0.0, SVG Export Plug-In . SVG Version: 6.00 Build 0)  -->
<!DOCTYPE svg PUBLIC "-//W3C//DTD SVG 1.1//EN" "http://www.w3.org/Graphics/SVG/1.1/DTD/svg11.dtd">
<svg version="1.1" id="Layer_1" xmlns="http://www.w3.org/2000/svg" xmlns:xlink="http://www.w3.org/1999/xlink" x="0px" y="0px"
	 width="27px" height="27px" viewBox="0 0 27 27" enable-background="new 0 0 27 27" xml:space="preserve">
<g>
	<g>
		<g>
			<circle id="SVGID_24_" fill="#FFFFFF" cx="13.5" cy="13.5" r="13.5"/>
		</g>
		<g>
			<defs>
				<circle id="SVGID_1_" cx="13.5" cy="13.5" r="13.5"/>
			</defs>
			<clipPath id="SVGID_2_">
				<use xlink:href="#SVGID_1_"  overflow="visible"/>
			</clipPath>
			<g clip-path="url(#SVGID_2_)">
				<g>
					<path fill="#1A425F" d="M9.382,5.667h1.31l0.847,3.367h0.083l0.805-3.367h1.32l-1.516,4.929v3.496h-1.3v-3.34L9.382,5.667z"/>
					<path fill="#1A425F" d="M13.688,9.295c0-0.479,0.155-0.864,0.466-1.148c0.313-0.284,0.73-0.427,1.254-0.427
						c0.48,0,0.873,0.148,1.176,0.45c0.307,0.299,0.46,0.689,0.46,1.161v3.211c0,0.531-0.15,0.951-0.45,1.253
						c-0.301,0.303-0.711,0.454-1.238,0.454c-0.504,0-0.907-0.157-1.212-0.468c-0.303-0.312-0.454-0.735-0.454-1.261L13.688,9.295
						L13.688,9.295z M14.876,12.635c0,0.174,0.041,0.303,0.124,0.399c0.082,0.092,0.197,0.138,0.354,0.138
						c0.158,0,0.277-0.048,0.372-0.144c0.093-0.093,0.139-0.226,0.139-0.393V9.25c0-0.135-0.046-0.245-0.143-0.328
						c-0.093-0.084-0.219-0.125-0.368-0.125c-0.142,0-0.257,0.04-0.345,0.125c-0.089,0.083-0.133,0.193-0.133,0.328V12.635z"/>
					<path fill="#1A425F" d="M21.324,7.876v6.215h-1.156v-0.685c-0.216,0.253-0.437,0.445-0.665,0.577
						c-0.231,0.132-0.456,0.197-0.672,0.197c-0.268,0-0.468-0.09-0.604-0.276c-0.137-0.186-0.203-0.463-0.203-0.833V7.876h1.154
						v4.763c0,0.148,0.025,0.256,0.07,0.322c0.051,0.064,0.13,0.098,0.239,0.098c0.086,0,0.192-0.043,0.321-0.132
						c0.129-0.084,0.249-0.196,0.358-0.333V7.875L21.324,7.876L21.324,7.876z"/>
				</g>
				<g>
					<path fill="#1A425F" d="M17.391,19.375c-0.067,0-0.134,0.015-0.196,0.049c-0.065,0.033-0.129,0.084-0.193,0.152v3.138
						c0.074,0.08,0.148,0.141,0.223,0.177c0.069,0.037,0.145,0.054,0.222,0.054c0.117,0,0.202-0.036,0.257-0.106
						c0.051-0.069,0.079-0.187,0.079-0.347v-2.598c0-0.171-0.031-0.301-0.1-0.388S17.52,19.375,17.391,19.375z"/>
					<path fill="#1A425F" d="M20.833,19.394c-0.151,0-0.257,0.046-0.322,0.137c-0.063,0.091-0.099,0.24-0.099,0.451v0.509h0.827
						v-0.509c0-0.211-0.03-0.36-0.098-0.451C21.079,19.44,20.975,19.394,20.833,19.394z"/>
					<path fill="#1A425F" d="M23.375,17.47c0-1.215-0.997-2.201-2.229-2.201c-1.751-0.073-3.548-0.106-5.379-0.103
						c-1.832-0.004-3.626,0.029-5.382,0.103c-1.229,0-2.227,0.987-2.227,2.201c-0.075,0.96-0.105,1.928-0.103,2.889
						c-0.003,0.964,0.028,1.926,0.103,2.887c0,1.216,0.998,2.203,2.227,2.203c1.756,0.073,3.55,0.107,5.382,0.102
						c1.832,0.006,3.628-0.028,5.379-0.102c1.231,0,2.229-0.988,2.229-2.203c0.075-0.961,0.106-1.923,0.103-2.887
						C23.482,19.398,23.451,18.43,23.375,17.47z M11.395,23.672h-1.054v-5.834H9.25v-0.991h3.233v0.991h-1.089L11.395,23.672
						L11.395,23.672z M15.143,23.672h-0.937v-0.558c-0.172,0.206-0.353,0.361-0.536,0.468c-0.188,0.107-0.369,0.161-0.543,0.161
						c-0.218,0-0.379-0.073-0.49-0.224c-0.112-0.15-0.166-0.375-0.166-0.676v-4.205h0.937v3.859c0,0.119,0.019,0.204,0.059,0.256
						c0.039,0.057,0.103,0.082,0.191,0.082c0.068,0,0.154-0.035,0.258-0.104c0.105-0.074,0.203-0.164,0.29-0.272v-3.821h0.937
						V23.672z M18.745,22.63c0,0.355-0.072,0.629-0.219,0.819c-0.147,0.19-0.358,0.284-0.636,0.284
						c-0.183,0-0.346-0.035-0.491-0.108c-0.141-0.073-0.276-0.187-0.397-0.339v0.386h-0.946v-6.825h0.946v2.199
						c0.126-0.153,0.258-0.269,0.4-0.351c0.144-0.077,0.285-0.121,0.432-0.121c0.295,0,0.521,0.108,0.678,0.323
						c0.154,0.216,0.233,0.527,0.233,0.938V22.63z M22.205,21.274h-1.792v0.95c0,0.264,0.033,0.446,0.094,0.551
						c0.062,0.102,0.165,0.153,0.315,0.153c0.154,0,0.267-0.046,0.325-0.132c0.063-0.085,0.093-0.276,0.093-0.572v-0.353h0.965v0.38
						c0,0.516-0.118,0.904-0.353,1.165c-0.235,0.26-0.587,0.391-1.051,0.391c-0.419,0-0.748-0.138-0.989-0.416
						c-0.242-0.276-0.36-0.655-0.36-1.14v-2.26c0-0.437,0.131-0.792,0.396-1.069c0.267-0.274,0.606-0.412,1.025-0.412
						c0.43,0,0.758,0.128,0.983,0.384c0.233,0.255,0.349,0.62,0.349,1.098V21.274L22.205,21.274z"/>
				</g>
			</g>
		</g>
	</g>
</g>
</svg>
