<?xml version="1.0" encoding="utf-8"?>
<!-- Generator: Adobe Illustrator 16.0.0, SVG Export Plug-In . SVG Version: 6.00 Build 0)  -->
<!DOCTYPE svg PUBLIC "-//W3C//DTD SVG 1.1//EN" "http://www.w3.org/Graphics/SVG/1.1/DTD/svg11.dtd">
<svg version="1.1" id="Layer_1" xmlns="http://www.w3.org/2000/svg" xmlns:xlink="http://www.w3.org/1999/xlink" x="0px" y="0px"
	 width="27px" height="27px" viewBox="0 0 27 27" enable-background="new 0 0 27 27" xml:space="preserve">
<g>
	<circle fill="#FFFFFF" cx="13.5" cy="13.5" r="13.5"/>
	<g>
		<g>
			<circle id="SVGID_18_" fill="#FFFFFF" cx="13.5" cy="13.5" r="13.5"/>
		</g>
		<g>
			<defs>
				<circle id="SVGID_1_" cx="13.5" cy="13.5" r="13.5"/>
			</defs>
			<clipPath id="SVGID_2_">
				<use xlink:href="#SVGID_1_"  overflow="visible"/>
			</clipPath>
			<path clip-path="url(#SVGID_2_)" fill="#1A425F" d="M18.519-0.596c-4.124,0-7.467,3.34-7.467,7.464
				c0,1.687,0.561,3.261,1.504,4.492c0,0,2.846,4.665,3.297,5.746c1.676,4.008,1.888,5.953,1.888,5.953
				c0,0.409,0.332,0.754,0.739,0.754h0.081c0.408,0,0.739-0.345,0.739-0.754c0,0,0.547-2.583,1.892-5.766
				c0.461-1.086,3.377-6.065,3.377-6.065c0.891-1.232,1.414-2.732,1.414-4.366C25.984,2.739,22.644-0.596,18.519-0.596z
				 M18.519,9.827c-1.633,0-2.956-1.323-2.956-2.955c0-1.632,1.323-2.957,2.956-2.957c1.632,0,2.955,1.324,2.955,2.957
				C21.474,8.504,20.15,9.827,18.519,9.827z"/>
		</g>
	</g>
</g>
</svg>
