<?xml version="1.0" encoding="utf-8"?>
<!-- Generator: Adobe Illustrator 16.0.0, SVG Export Plug-In . SVG Version: 6.00 Build 0)  -->
<!DOCTYPE svg PUBLIC "-//W3C//DTD SVG 1.1//EN" "http://www.w3.org/Graphics/SVG/1.1/DTD/svg11.dtd">
<svg version="1.1" id="Layer_1" xmlns="http://www.w3.org/2000/svg" xmlns:xlink="http://www.w3.org/1999/xlink" x="0px" y="0px"
	 width="147.538px" height="156.388px" viewBox="0 0 147.538 156.388" enable-background="new 0 0 147.538 156.388"
	 xml:space="preserve">
<g opacity="0.7">
	<g>
		<path fill="#FFFFFF" d="M38.525,62.167c0-4.196,1.343-8.448,4.036-12.755c2.694-4.304,6.628-7.871,11.796-10.699
			c5.164-2.824,11.196-4.237,18.085-4.237c6.402,0,12.06,1.177,16.96,3.542c4.904,2.366,8.691,5.579,11.362,9.642
			c2.675,4.062,4.005,8.478,4.005,13.251c0,3.752-0.757,7.043-2.281,9.867c-1.524,2.831-3.338,5.268-5.431,7.324
			c-2.102,2.054-5.868,5.51-11.299,10.368c-1.5,1.367-2.71,2.576-3.609,3.611c-0.906,1.038-1.581,1.987-2.02,2.852
			c-0.443,0.857-0.788,1.72-1.026,2.583c-0.247,0.861-0.608,2.371-1.094,4.537c-0.839,4.595-3.469,6.891-7.882,6.891
			c-2.301,0-4.235-0.751-5.8-2.255c-1.569-1.501-2.349-3.729-2.349-6.689c0-3.711,0.569-6.923,1.719-9.638
			c1.145-2.718,2.672-5.104,4.575-7.157c1.896-2.055,4.458-4.495,7.684-7.325c2.82-2.469,4.866-4.337,6.125-5.596
			c1.263-1.259,2.317-2.66,3.181-4.209c0.863-1.541,1.294-3.22,1.294-5.033c0-3.532-1.32-6.517-3.942-8.946
			c-2.628-2.426-6.021-3.642-10.172-3.642c-4.856,0-8.433,1.228-10.732,3.68c-2.297,2.447-4.239,6.058-5.83,10.828
			c-1.502,4.992-4.348,7.489-8.545,7.489c-2.473,0-4.563-0.875-6.264-2.619C39.374,66.086,38.525,64.199,38.525,62.167z
			 M70.851,134.78c-2.691,0-5.045-0.869-7.057-2.613c-2.006-1.745-3.01-4.188-3.01-7.32c0-2.787,0.971-5.127,2.914-7.026
			c1.945-1.897,4.327-2.845,7.152-2.845c2.783,0,5.125,0.947,7.024,2.845c1.901,1.899,2.847,4.239,2.847,7.026
			c0,3.091-0.988,5.521-2.981,7.281C75.758,133.899,73.458,134.78,70.851,134.78z"/>
	</g>
</g>
<g>
	<path fill="none" stroke="#FFFFFF" stroke-width="3" stroke-miterlimit="10" d="M29.242,12.806C40.91,5.635,54.645,1.5,69.344,1.5
		c42.357,0,76.694,34.337,76.694,76.693c0,42.357-34.337,76.694-76.694,76.694c-29.559,0-55.211-16.722-68.015-41.222"/>
</g>
</svg>
